<?xml version="1.0" encoding="UTF-8" standalone="no"?><!DOCTYPE svg PUBLIC "-//W3C//DTD SVG 1.1//EN" "http://www.w3.org/Graphics/SVG/1.1/DTD/svg11.dtd"><svg width="100%" height="100%" viewBox="0 0 7 7" version="1.1" xmlns="http://www.w3.org/2000/svg" xmlns:xlink="http://www.w3.org/1999/xlink" xml:space="preserve" xmlns:serif="http://www.serif.com/" style="fill-rule:evenodd;clip-rule:evenodd;stroke-linejoin:round;stroke-miterlimit:1.41421;"><g id="star-01" serif:id="star 01"><path id="Star" d="M4.568,3.658c-0.095,0.098 -0.138,0.236 -0.116,0.372l0.263,1.625l-1.348,-0.751c-0.065,-0.036 -0.137,-0.054 -0.208,-0.054c-0.071,0 -0.143,0.018 -0.208,0.054l-1.348,0.751l0.263,-1.625c0.022,-0.136 -0.021,-0.274 -0.116,-0.372l-1.133,-1.171l1.546,-0.239c0.141,-0.021 0.263,-0.113 0.324,-0.243l0.672,-1.445l0.672,1.445c0.061,0.13 0.182,0.222 0.324,0.244l1.546,0.238l-1.133,1.171Zm1.623,-1.327c-0.053,-0.158 -0.189,-0.273 -0.352,-0.298l-1.59,-0.244l-0.691,-1.481c-0.072,-0.156 -0.228,-0.255 -0.399,-0.255c-0.171,0 -0.327,0.099 -0.399,0.255l-0.691,1.481l-1.59,0.244c-0.163,0.025 -0.299,0.14 -0.352,0.298c-0.052,0.158 -0.013,0.331 0.103,0.45l1.165,1.201l-0.27,1.665c-0.028,0.168 0.042,0.336 0.181,0.434c0.075,0.054 0.165,0.081 0.254,0.081c0.073,0 0.147,-0.018 0.213,-0.055l1.386,-0.77l1.386,0.77c0.067,0.037 0.14,0.055 0.213,0.055c0.089,0 0.179,-0.027 0.255,-0.081c0.138,-0.098 0.208,-0.266 0.181,-0.434l-0.271,-1.665l1.165,-1.201c0.116,-0.119 0.155,-0.293 0.103,-0.45" style="fill:#a4c5e9;"/></g></svg>