<?xml version="1.0" encoding="UTF-8" standalone="no"?><!DOCTYPE svg PUBLIC "-//W3C//DTD SVG 1.1//EN" "http://www.w3.org/Graphics/SVG/1.1/DTD/svg11.dtd"><svg width="100%" height="100%" viewBox="0 0 7 7" version="1.1" xmlns="http://www.w3.org/2000/svg" xmlns:xlink="http://www.w3.org/1999/xlink" xml:space="preserve" xmlns:serif="http://www.serif.com/" style="fill-rule:evenodd;clip-rule:evenodd;stroke-linejoin:round;stroke-miterlimit:1.41421;"><g id="star-03" serif:id="star 03"><path d="M2.901,0.634c0.069,-0.129 0.206,-0.209 0.356,-0.209c0.151,0 0.288,0.08 0.357,0.209l0.689,1.284c0.008,0.016 0.02,0.029 0.035,0.039c0.014,0.01 0.031,0.017 0.049,0.02l1.479,0.235c0.148,0.023 0.271,0.125 0.317,0.262c0.046,0.138 0.009,0.289 -0.096,0.392l-1.054,1.029c-0.013,0.012 -0.022,0.027 -0.028,0.044c-0.005,0.016 -0.007,0.033 -0.004,0.051l0.226,1.429c0.022,0.143 -0.04,0.287 -0.161,0.372c-0.122,0.085 -0.283,0.097 -0.417,0.032l-1.34,-0.648c-0.016,-0.008 -0.034,-0.012 -0.052,-0.012c-0.018,0 -0.035,0.004 -0.051,0.012l-1.34,0.648c-0.135,0.065 -0.295,0.053 -0.417,-0.032c-0.121,-0.085 -0.183,-0.229 -0.161,-0.372l0.226,-1.429c0.003,-0.018 0.001,-0.035 -0.004,-0.051c-0.006,-0.017 -0.015,-0.032 -0.028,-0.044l-1.054,-1.029c-0.105,-0.103 -0.143,-0.254 -0.096,-0.392c0.046,-0.137 0.168,-0.239 0.317,-0.262l1.479,-0.235c0.018,-0.003 0.035,-0.01 0.049,-0.02c0.015,-0.01 0.027,-0.023 0.035,-0.039l0.689,-1.284Z" style="fill:#a4c5e9;"/><path id="Star" d="M4.667,3.658c-0.096,0.098 -0.139,0.236 -0.117,0.372l0.263,1.625l-1.348,-0.751c-0.065,-0.036 -0.136,-0.054 -0.208,-0.054c-0.071,0 -0.143,0.018 -0.207,0.054l-1.348,0.751l0.263,-1.625c0.021,-0.136 -0.022,-0.274 -0.117,-0.372l-1.133,-1.171l1.546,-0.239c0.142,-0.021 0.263,-0.113 0.324,-0.243l0.673,-1.445l0.672,1.445c0.061,0.13 0.182,0.222 0.323,0.244l1.547,0.238l-1.133,1.171Zm1.622,-1.327c-0.053,-0.158 -0.188,-0.273 -0.352,-0.298l-1.589,-0.244l-0.691,-1.481c-0.073,-0.156 -0.228,-0.255 -0.399,-0.255c-0.172,0 -0.327,0.099 -0.4,0.255l-0.691,1.481l-1.59,0.244c-0.163,0.025 -0.299,0.14 -0.351,0.298c-0.053,0.158 -0.013,0.331 0.102,0.45l1.165,1.201l-0.27,1.665c-0.027,0.168 0.043,0.336 0.181,0.434c0.076,0.054 0.165,0.081 0.254,0.081c0.073,0 0.147,-0.018 0.214,-0.055l1.386,-0.77l1.385,0.77c0.067,0.037 0.141,0.055 0.214,0.055c0.089,0 0.178,-0.027 0.254,-0.081c0.138,-0.098 0.208,-0.266 0.181,-0.434l-0.27,-1.665l1.165,-1.201c0.115,-0.119 0.155,-0.293 0.102,-0.45" style="fill:#a4c5e9;"/></g></svg>